<svg id="solid" height="512" viewBox="0 0 512 512" width="512" xmlns="http://www.w3.org/2000/svg"><g><circle cx="112" cy="288" r="16"/><path d="m216 416h-8c-4.418 0-8-3.582-8-8v-8c0-8.822-7.178-16-16-16-6.43 0-12.212 3.824-14.73 9.742-1.217 2.859-3.979 4.755-7.085 4.862-3.116.094-5.993-1.594-7.403-4.361-8.253-16.187-24.645-26.243-42.782-26.243-26.468 0-48 21.532-48 48v8c0 4.418-3.582 8-8 8-13.233 0-24 10.767-24 24s10.767 24 24 24h160c17.645 0 32-14.355 32-32s-14.355-32-32-32z"/><path d="m136 184c0-22.934 4.122-45.676 12.05-67.004-42.524 33.062-68.05 84.218-68.05 139.004 0 8.063.546 16.057 1.616 23.939 12.482-.835 22.384-11.249 22.384-23.939 0-4.418 3.582-8 8-8s8 3.582 8 8c0 13.233 10.767 24 24 24 4.418 0 8 3.582 8 8s-3.582 8-8 8c-13.233 0-24 10.767-24 24 0 4.418-3.582 8-8 8s-8-3.582-8-8c0-11.635-8.324-21.36-19.328-23.54 4.631 19.707 12.66 38.487 23.867 55.637 1.146-.062 2.3-.097 3.461-.097 19.958 0 38.331 9.129 50.323 24.446 5.791-5.331 13.47-8.446 21.677-8.446 17.645 0 32 14.355 32 32 20.83 0 38.594 13.339 45.221 31.921 52.804-1.565 101.774-26.802 133.783-67.971-21.328 7.928-44.07 12.05-67.004 12.05-105.869 0-192-86.131-192-192z"/><path d="m452 64h-6.742c-3.391 0-6.412-2.137-7.542-5.333-5.64-15.95-20.797-26.667-37.716-26.667s-32.076 10.717-37.716 26.667c-1.13 3.196-4.151 5.333-7.542 5.333h-6.742c-12.149 0-22.846 7.757-26.616 19.302-.84 2.572-2.922 4.545-5.535 5.244-6.977 1.868-11.849 8.223-11.849 15.454 0 8.822 7.178 16 16 16h132c15.439 0 28-12.561 28-28s-12.561-28-28-28z"/><path d="m184 192c13.233 0 24 10.767 24 24 0 4.418 3.582 8 8 8s8-3.582 8-8c0-13.233 10.767-24 24-24 4.418 0 8-3.582 8-8s-3.582-8-8-8c-13.233 0-24-10.767-24-24 0-4.418-3.582-8-8-8s-8 3.582-8 8c0 13.233-10.767 24-24 24-4.418 0-8 3.582-8 8s3.582 8 8 8z"/><path d="m296 208c13.233 0 24 10.767 24 24 0 4.418 3.582 8 8 8s8-3.582 8-8c0-13.233 10.767-24 24-24 4.418 0 8-3.582 8-8s-3.582-8-8-8c-13.233 0-24-10.767-24-24 0-4.418-3.582-8-8-8s-8 3.582-8 8c0 13.233-10.767 24-24 24-4.418 0-8 3.582-8 8s3.582 8 8 8z"/><path d="m296 312c13.233 0 24 10.767 24 24 0 4.418 3.582 8 8 8s8-3.582 8-8c0-13.233 10.767-24 24-24 4.418 0 8-3.582 8-8s-3.582-8-8-8c-13.233 0-24-10.767-24-24 0-4.418-3.582-8-8-8s-8 3.582-8 8c0 13.233-10.767 24-24 24-4.418 0-8 3.582-8 8s3.582 8 8 8z"/><circle cx="440" cy="208" r="24"/><circle cx="96" cy="72" r="24"/><circle cx="432" cy="432" r="24"/></g></svg>